<svg xmlns="http://www.w3.org/2000/svg" xmlns:xlink="http://www.w3.org/1999/xlink" width="500" zoomAndPan="magnify" viewBox="0 0 375 374.999991" height="500" preserveAspectRatio="xMidYMid meet" version="1.0"><defs><g/><clipPath id="0253ac2108"><path d="M 63.976562 206.894531 L 305.714844 206.894531 L 305.714844 234.582031 L 63.976562 234.582031 Z M 63.976562 206.894531 " clip-rule="nonzero"/></clipPath><clipPath id="3b9f725c29"><path d="M 77.824219 206.894531 L 291.792969 206.894531 C 295.464844 206.894531 298.984375 208.351562 301.582031 210.949219 C 304.179688 213.546875 305.636719 217.066406 305.636719 220.738281 C 305.636719 224.410156 304.179688 227.929688 301.582031 230.527344 C 298.984375 233.125 295.464844 234.582031 291.792969 234.582031 L 77.824219 234.582031 C 74.152344 234.582031 70.628906 233.125 68.03125 230.527344 C 65.4375 227.929688 63.976562 224.410156 63.976562 220.738281 C 63.976562 217.066406 65.4375 213.546875 68.03125 210.949219 C 70.628906 208.351562 74.152344 206.894531 77.824219 206.894531 Z M 77.824219 206.894531 " clip-rule="nonzero"/></clipPath></defs><rect x="-37.5" width="450" fill="#ffffff" y="-37.499999" height="449.999989" fill-opacity="1"/><rect x="-37.5" width="450" fill="#ffffff" y="-37.499999" height="449.999989" fill-opacity="1"/><path stroke-linecap="butt" transform="matrix(0.796661, 0, 0, 0.796661, 96.637455, -0.962274)" fill="none" stroke-linejoin="miter" d="M 190.162955 120.818478 C 189.069524 121.416678 187.368086 122.367914 185.073351 123.66238 C 183.077717 124.760714 180.356397 126.334667 176.914295 128.379334 C 173.467289 130.424002 169.000402 133.047256 163.513632 136.239291 C 165.210167 134.042622 165.984885 132.473573 165.832884 131.522337 C 165.680882 130.576004 165.210167 129.953287 164.410933 129.654187 C 163.410664 129.252118 162.062262 129.203085 160.365727 129.502185 C 159.370362 129.70322 157.222725 129.928771 153.927722 130.178838 C 150.632718 130.424002 146.518867 130.649553 141.576361 130.850587 C 136.633856 131.051622 131.019601 131.247753 124.728694 131.448787 C 118.44269 131.649822 111.803649 131.79692 104.816477 131.899889 C 104.414408 148.571038 104.066275 163.491717 103.767175 176.671732 C 103.468075 189.846843 103.193491 201.526454 102.943424 211.710565 C 102.693357 221.889773 102.492322 230.725482 102.345224 238.21279 C 102.193222 245.700097 102.07064 252.08907 101.972575 257.379708 C 101.668571 269.755585 101.521473 278.341227 101.521473 283.131731 C 101.423407 286.8239 100.923273 290.47194 100.025973 294.061141 C 99.226738 297.160013 98.025435 300.47463 96.431869 304.019701 C 94.8334 307.564772 92.538665 310.786226 89.542762 313.679161 C 91.440331 313.880195 93.234931 314.002777 94.931466 314.05181 C 96.628 314.100843 98.324535 314.130263 100.025973 314.130263 C 104.713508 314.130263 108.935231 313.904712 112.676433 313.45361 C 116.417635 313.002508 119.63909 312.531793 122.335893 312.031659 C 125.027794 311.531525 127.199946 311.03139 128.847448 310.536159 C 130.49495 310.036024 131.519735 309.687892 131.916901 309.486857 C 126.626263 313.080961 122.232924 316.17493 118.74179 318.768765 C 115.245752 321.367503 112.10275 323.485719 109.30788 325.133221 C 106.513011 326.780723 103.767175 328.00164 101.070371 328.800874 C 98.378471 329.600109 95.230566 330.002177 91.636462 330.002177 C 86.845958 330.002177 82.78114 329.801143 79.437103 329.399074 C 76.093067 329.001909 72.719611 328.800874 69.326541 328.800874 C 67.630007 328.800874 65.908956 328.879327 64.163388 329.026425 C 62.412918 329.178427 60.441799 329.502043 58.24513 330.002177 C 61.044903 327.604474 63.614221 324.986123 65.957988 322.137318 C 68.306659 319.293416 70.277777 315.826797 71.871343 311.732559 C 73.469812 307.638321 74.720148 302.749751 75.617449 297.057044 C 76.514749 291.36924 76.96585 284.480133 76.96585 276.394625 L 76.96585 132.797189 C 68.282143 132.998224 59.77005 133.194355 51.434475 133.395389 C 43.098901 133.596424 35.587077 133.772942 28.899004 133.92004 C 22.210931 134.072042 16.596676 134.243656 12.051336 134.444691 C 7.5109 134.645725 4.642481 134.792824 3.446081 134.895793 C 0.651212 135.194893 -1.349326 135.091924 -2.545726 134.591789 C -3.742126 134.096558 -4.291293 133.32184 -4.193228 132.272538 C -4.095162 131.223236 -3.369477 129.953287 -2.021075 128.452884 C -0.672673 126.957384 1.146443 125.358914 3.446081 123.66238 L 23.956498 108.839767 C 22.460998 110.634367 21.98538 111.982769 22.534547 112.880069 C 23.083715 113.782272 23.956498 114.478538 25.157802 114.978672 C 26.555236 115.478807 28.398869 115.777907 30.693604 115.875972 C 32.292073 115.875972 35.538044 115.82694 40.426613 115.728874 C 45.320086 115.625905 51.282474 115.503323 58.323583 115.351322 C 65.359788 115.204223 73.170712 115.052221 81.756354 114.905123 C 90.341996 114.753121 99.074737 114.552087 107.959479 114.306923 C 116.844221 114.056856 125.576961 113.831305 134.162603 113.63027 C 142.748245 113.429236 150.559169 113.257621 157.595374 113.10562 C 164.636483 112.958521 170.598871 112.80652 175.492344 112.659421 C 180.380913 112.50742 183.626884 112.384838 185.225353 112.281869 C 188.319322 112.183803 190.565024 112.43387 191.962459 113.03207 C 193.359893 113.63027 194.134611 114.429505 194.28171 115.429774 C 194.433711 116.42514 194.085579 117.425409 193.232408 118.420774 C 192.384141 119.421043 191.364259 120.220278 190.162955 120.818478 Z M 131.916901 309.486857 L 131.916901 309.334855 C 132.01987 309.23679 132.117935 309.187757 132.216001 309.187757 Z M 131.916901 309.486857 " stroke="#ffffff" stroke-width="23.000025" stroke-opacity="1" stroke-miterlimit="4"/><g fill="#000000" fill-opacity="1"><g transform="translate(96.637455, 261.935765)"><g><path d="M 151.5 -166.640625 C 150.625 -166.160156 149.269531 -165.40625 147.4375 -164.375 C 145.84375 -163.5 143.675781 -162.242188 140.9375 -160.609375 C 138.195312 -158.984375 134.640625 -156.898438 130.265625 -154.359375 C 131.609375 -156.109375 132.222656 -157.359375 132.109375 -158.109375 C 131.992188 -158.867188 131.613281 -159.367188 130.96875 -159.609375 C 130.175781 -159.921875 129.101562 -159.957031 127.75 -159.71875 C 126.957031 -159.5625 125.25 -159.382812 122.625 -159.1875 C 120 -158.988281 116.71875 -158.804688 112.78125 -158.640625 C 108.84375 -158.484375 104.367188 -158.328125 99.359375 -158.171875 C 94.347656 -158.015625 89.0625 -157.894531 83.5 -157.8125 C 83.175781 -144.53125 82.894531 -132.640625 82.65625 -122.140625 C 82.425781 -111.648438 82.207031 -102.347656 82 -94.234375 C 81.800781 -86.117188 81.644531 -79.078125 81.53125 -73.109375 C 81.414062 -67.148438 81.316406 -62.066406 81.234375 -57.859375 C 80.992188 -47.992188 80.875 -41.15625 80.875 -37.34375 C 80.789062 -34.394531 80.394531 -31.488281 79.6875 -28.625 C 79.050781 -26.164062 78.09375 -23.523438 76.8125 -20.703125 C 75.539062 -17.878906 73.710938 -15.3125 71.328125 -13 C 72.835938 -12.84375 74.269531 -12.742188 75.625 -12.703125 C 76.976562 -12.660156 78.332031 -12.640625 79.6875 -12.640625 C 83.425781 -12.640625 86.785156 -12.816406 89.765625 -13.171875 C 92.742188 -13.535156 95.304688 -13.914062 97.453125 -14.3125 C 99.597656 -14.707031 101.328125 -15.101562 102.640625 -15.5 C 103.953125 -15.90625 104.769531 -16.1875 105.09375 -16.34375 C 100.875 -13.476562 97.375 -11.007812 94.59375 -8.9375 C 91.8125 -6.875 89.304688 -5.1875 87.078125 -3.875 C 84.847656 -2.5625 82.660156 -1.585938 80.515625 -0.953125 C 78.367188 -0.316406 75.863281 0 73 0 C 69.1875 0 65.945312 -0.15625 63.28125 -0.46875 C 60.613281 -0.789062 57.929688 -0.953125 55.234375 -0.953125 C 53.878906 -0.953125 52.503906 -0.890625 51.109375 -0.765625 C 49.722656 -0.648438 48.15625 -0.394531 46.40625 0 C 48.625 -1.90625 50.664062 -3.988281 52.53125 -6.25 C 54.40625 -8.519531 55.976562 -11.285156 57.25 -14.546875 C 58.53125 -17.804688 59.523438 -21.703125 60.234375 -26.234375 C 60.953125 -30.773438 61.3125 -36.265625 61.3125 -42.703125 L 61.3125 -157.09375 C 54.394531 -156.9375 47.613281 -156.78125 40.96875 -156.625 C 34.332031 -156.46875 28.347656 -156.328125 23.015625 -156.203125 C 17.691406 -156.085938 13.21875 -155.945312 9.59375 -155.78125 C 5.976562 -155.625 3.695312 -155.503906 2.75 -155.421875 C 0.519531 -155.191406 -1.066406 -155.273438 -2.015625 -155.671875 C -2.972656 -156.066406 -3.410156 -156.679688 -3.328125 -157.515625 C -3.253906 -158.347656 -2.679688 -159.359375 -1.609375 -160.546875 C -0.535156 -161.742188 0.914062 -163.019531 2.75 -164.375 L 19.078125 -176.1875 C 17.890625 -174.75 17.515625 -173.671875 17.953125 -172.953125 C 18.390625 -172.242188 19.085938 -171.691406 20.046875 -171.296875 C 21.148438 -170.898438 22.617188 -170.660156 24.453125 -170.578125 C 25.722656 -170.578125 28.304688 -170.613281 32.203125 -170.6875 C 36.097656 -170.769531 40.847656 -170.867188 46.453125 -170.984375 C 52.066406 -171.109375 58.289062 -171.226562 65.125 -171.34375 C 71.96875 -171.46875 78.925781 -171.628906 86 -171.828125 C 93.082031 -172.023438 100.039062 -172.203125 106.875 -172.359375 C 113.71875 -172.523438 119.941406 -172.664062 125.546875 -172.78125 C 131.148438 -172.90625 135.898438 -173.023438 139.796875 -173.140625 C 143.691406 -173.265625 146.28125 -173.363281 147.5625 -173.4375 C 150.019531 -173.519531 151.804688 -173.320312 152.921875 -172.84375 C 154.035156 -172.363281 154.648438 -171.726562 154.765625 -170.9375 C 154.890625 -170.144531 154.613281 -169.347656 153.9375 -168.546875 C 153.257812 -167.753906 152.445312 -167.117188 151.5 -166.640625 Z M 105.09375 -16.34375 L 105.09375 -16.46875 C 105.164062 -16.539062 105.242188 -16.578125 105.328125 -16.578125 Z M 105.09375 -16.34375 "/></g></g></g><path stroke-linecap="butt" transform="matrix(0.638842, 0, 0, 0.638842, 150.087489, 97.059054)" fill="none" stroke-linejoin="miter" d="M 165.237838 266.808747 C 165.237838 271.902188 163.586903 277.142378 160.297261 282.535433 C 157.001506 287.922373 152.684616 293.138105 147.340478 298.18263 C 142.002454 303.221039 136.010171 307.990407 129.375857 312.478505 C 122.735429 316.972718 116.046084 320.941077 109.307823 324.383582 C 102.569562 327.826088 96.106456 330.571532 89.918507 332.619914 C 83.730557 334.668297 78.490367 335.738347 74.197935 335.842295 C 70.10117 336.037962 65.710906 335.689431 61.021027 334.790588 C 56.331148 333.891746 51.861394 332.772779 47.617879 331.421458 C 43.374364 330.076251 39.583328 328.627097 36.238656 327.08011 C 32.893983 325.533122 30.625476 324.157343 29.427019 322.965001 C 28.723843 322.163992 28.155188 321.289607 27.702709 320.341848 C 27.256345 319.394089 27.030106 318.348497 27.030106 317.198957 C 27.030106 316.049417 27.354178 314.85096 28.002323 313.603587 C 28.650468 312.356214 29.726633 311.084382 31.224704 309.788092 C 32.618827 308.687469 34.367596 307.287231 36.464895 305.593494 C 38.26258 304.193257 40.555545 302.371113 43.349906 300.127064 C 46.144267 297.883015 49.592887 295.16203 53.683537 291.964107 C 52.185466 293.462178 51.237707 294.862416 50.84026 296.158705 C 50.436698 297.454995 50.289948 298.653452 50.387781 299.754075 C 50.485615 300.952532 50.889176 302.047041 51.586238 303.049831 C 52.582914 304.346121 54.331682 305.795275 56.826429 307.391179 C 59.321175 308.987083 62.341775 310.460696 65.888228 311.805902 C 69.428567 313.157223 73.421384 314.27619 77.86668 315.175033 C 82.305861 316.073875 86.922365 316.526354 91.716192 316.526354 C 97.604527 316.526354 103.443946 315.951584 109.234448 314.802044 C 115.02495 313.652504 120.240683 311.732527 124.881645 309.036 C 129.522607 306.339472 133.264727 302.774675 136.114119 298.329379 C 138.957396 293.890198 140.382092 288.374852 140.382092 281.78334 C 140.382092 275.693224 138.957396 270.330742 136.114119 265.68978 C 133.264727 261.048817 129.547065 256.878678 124.95502 253.185474 C 120.362974 249.492271 115.098325 246.123141 109.161073 243.078082 C 103.217707 240.033024 97.182621 237.012424 91.043588 234.016283 C 84.904556 231.026256 78.863356 227.981198 72.926104 224.887223 C 66.982737 221.793248 61.718088 218.32017 57.126043 214.480217 C 52.533997 210.634149 48.816336 206.292801 45.973058 201.450058 C 43.123667 196.607315 41.705085 190.994135 41.705085 184.604405 C 41.705085 178.416455 43.227614 172.350797 46.272673 166.413545 C 49.317731 160.476293 53.335006 154.881457 58.324499 149.641267 C 63.313992 144.401076 69.03112 139.533875 75.469767 135.045777 C 81.908414 130.551564 88.524384 126.681039 95.311562 123.440314 C 102.09874 120.193475 108.763626 117.649812 115.300106 115.80321 C 121.836587 113.956609 127.755495 112.984391 133.044602 112.880444 C 138.131928 112.78261 143.023588 113.00885 147.719581 113.559161 C 152.40946 114.103358 156.353361 114.928826 159.545169 116.02945 C 162.743091 117.123958 164.938224 118.499738 166.13668 120.144558 C 167.335137 121.789379 167.035523 123.660439 165.237838 125.757738 C 163.739767 127.45759 161.893165 129.255275 159.698033 131.150793 C 157.698567 132.84453 155.252737 134.746163 152.360544 136.837347 C 149.462235 138.934646 145.921896 141.18481 141.727298 143.575609 C 142.528307 142.383266 142.974671 141.307101 143.072505 140.359342 C 143.176452 139.411583 143.127536 138.635032 142.925755 138.035804 C 142.626141 137.338742 142.228693 136.739514 141.727298 136.244233 C 141.030237 135.645005 139.807322 134.990746 138.058553 134.293684 C 136.309785 133.596623 134.139111 132.899561 131.546531 132.196385 C 128.947837 131.499323 126.006727 130.924553 122.710971 130.47819 C 119.415215 130.025711 115.923793 129.799472 112.23059 129.799472 C 106.238307 129.799472 100.478377 130.527106 94.932458 131.97626 C 89.392653 133.4193 84.500994 135.645005 80.263593 138.635032 C 76.020078 141.631174 72.62649 145.42221 70.076712 150.014256 C 67.533049 154.606301 66.261217 159.999356 66.261217 166.187306 C 66.261217 172.974484 67.685913 178.91785 70.52919 184.005176 C 73.372468 189.098617 77.114587 193.617288 81.75555 197.561188 C 86.402626 201.498975 91.691733 205.069886 97.628985 208.261694 C 103.572352 211.459617 109.607437 214.529133 115.74647 217.470244 C 121.885503 220.417469 127.926703 223.438069 133.863955 226.532043 C 139.807322 229.626018 145.096429 233.068524 149.737391 236.865675 C 154.378353 240.656711 158.126587 244.973601 160.969865 249.816344 C 163.813142 254.659087 165.237838 260.321183 165.237838 266.808747 Z M 165.237838 266.808747 " stroke="#ffffff" stroke-width="23.000025" stroke-opacity="1" stroke-miterlimit="4"/><g fill="#000000" fill-opacity="1"><g transform="translate(164.581228, 307.877069)"><g><path d="M 91.0625 -40.375 C 91.0625 -37.113281 90.007812 -33.757812 87.90625 -30.3125 C 85.800781 -26.875 83.039062 -23.546875 79.625 -20.328125 C 76.21875 -17.109375 72.394531 -14.0625 68.15625 -11.1875 C 63.914062 -8.320312 59.640625 -5.785156 55.328125 -3.578125 C 51.023438 -1.378906 46.894531 0.367188 42.9375 1.671875 C 38.988281 2.984375 35.644531 3.671875 32.90625 3.734375 C 30.289062 3.859375 27.484375 3.632812 24.484375 3.0625 C 21.492188 2.488281 18.640625 1.769531 15.921875 0.90625 C 13.210938 0.0507812 10.789062 -0.867188 8.65625 -1.859375 C 6.519531 -2.847656 5.066406 -3.726562 4.296875 -4.5 C 3.859375 -5.007812 3.492188 -5.566406 3.203125 -6.171875 C 2.921875 -6.773438 2.78125 -7.441406 2.78125 -8.171875 C 2.78125 -8.910156 2.984375 -9.675781 3.390625 -10.46875 C 3.804688 -11.269531 4.492188 -12.082031 5.453125 -12.90625 C 6.347656 -13.613281 7.460938 -14.507812 8.796875 -15.59375 C 9.941406 -16.488281 11.40625 -17.648438 13.1875 -19.078125 C 14.976562 -20.515625 17.179688 -22.253906 19.796875 -24.296875 C 18.835938 -23.335938 18.226562 -22.441406 17.96875 -21.609375 C 17.71875 -20.785156 17.628906 -20.023438 17.703125 -19.328125 C 17.765625 -18.554688 18.019531 -17.851562 18.46875 -17.21875 C 19.101562 -16.382812 20.21875 -15.457031 21.8125 -14.4375 C 23.40625 -13.414062 25.332031 -12.472656 27.59375 -11.609375 C 29.863281 -10.753906 32.414062 -10.039062 35.25 -9.46875 C 38.082031 -8.894531 41.03125 -8.609375 44.09375 -8.609375 C 47.851562 -8.609375 51.582031 -8.972656 55.28125 -9.703125 C 58.988281 -10.441406 62.320312 -11.671875 65.28125 -13.390625 C 68.25 -15.109375 70.640625 -17.382812 72.453125 -20.21875 C 74.273438 -23.0625 75.1875 -26.585938 75.1875 -30.796875 C 75.1875 -34.691406 74.273438 -38.117188 72.453125 -41.078125 C 70.640625 -44.046875 68.265625 -46.707031 65.328125 -49.0625 C 62.398438 -51.425781 59.035156 -53.582031 55.234375 -55.53125 C 51.441406 -57.476562 47.582031 -59.40625 43.65625 -61.3125 C 39.738281 -63.226562 35.882812 -65.171875 32.09375 -67.140625 C 28.300781 -69.117188 24.9375 -71.335938 22 -73.796875 C 19.0625 -76.253906 16.6875 -79.03125 14.875 -82.125 C 13.0625 -85.21875 12.15625 -88.804688 12.15625 -92.890625 C 12.15625 -96.835938 13.125 -100.707031 15.0625 -104.5 C 17.007812 -108.300781 19.578125 -111.875 22.765625 -115.21875 C 25.953125 -118.5625 29.601562 -121.664062 33.71875 -124.53125 C 37.832031 -127.40625 42.054688 -129.878906 46.390625 -131.953125 C 50.734375 -134.023438 54.988281 -135.648438 59.15625 -136.828125 C 63.332031 -138.015625 67.113281 -138.640625 70.5 -138.703125 C 73.75 -138.765625 76.875 -138.617188 79.875 -138.265625 C 82.875 -137.921875 85.390625 -137.394531 87.421875 -136.6875 C 89.460938 -135.988281 90.863281 -135.113281 91.625 -134.0625 C 92.394531 -133.007812 92.207031 -131.816406 91.0625 -130.484375 C 90.101562 -129.390625 88.925781 -128.238281 87.53125 -127.03125 C 86.25 -125.945312 84.679688 -124.734375 82.828125 -123.390625 C 80.984375 -122.054688 78.722656 -120.625 76.046875 -119.09375 C 76.554688 -119.851562 76.84375 -120.535156 76.90625 -121.140625 C 76.96875 -121.753906 76.9375 -122.25 76.8125 -122.625 C 76.625 -123.070312 76.367188 -123.457031 76.046875 -123.78125 C 75.597656 -124.164062 74.816406 -124.578125 73.703125 -125.015625 C 72.585938 -125.460938 71.203125 -125.910156 69.546875 -126.359375 C 67.890625 -126.804688 66.007812 -127.171875 63.90625 -127.453125 C 61.800781 -127.742188 59.566406 -127.890625 57.203125 -127.890625 C 53.378906 -127.890625 49.695312 -127.425781 46.15625 -126.5 C 42.613281 -125.582031 39.488281 -124.164062 36.78125 -122.25 C 34.070312 -120.332031 31.90625 -117.90625 30.28125 -114.96875 C 28.65625 -112.039062 27.84375 -108.601562 27.84375 -104.65625 C 27.84375 -100.3125 28.75 -96.515625 30.5625 -93.265625 C 32.375 -90.015625 34.765625 -87.128906 37.734375 -84.609375 C 40.703125 -82.085938 44.082031 -79.804688 47.875 -77.765625 C 51.664062 -75.722656 55.519531 -73.757812 59.4375 -71.875 C 63.363281 -70 67.222656 -68.070312 71.015625 -66.09375 C 74.816406 -64.125 78.195312 -61.925781 81.15625 -59.5 C 84.125 -57.070312 86.515625 -54.3125 88.328125 -51.21875 C 90.148438 -48.125 91.0625 -44.507812 91.0625 -40.375 Z M 91.0625 -40.375 "/></g></g></g><g clip-path="url(#0253ac2108)"><g clip-path="url(#3b9f725c29)"><path fill="#ffffff" d="M 63.976562 206.894531 L 305.605469 206.894531 L 305.605469 234.582031 L 63.976562 234.582031 Z M 63.976562 206.894531 " fill-opacity="1" fill-rule="nonzero"/></g></g><g fill="#000000" fill-opacity="1"><g transform="translate(69.823518, 227.709646)"><g><path d="M 13.5625 -14.90625 C 13.476562 -14.863281 13.351562 -14.796875 13.1875 -14.703125 C 13.050781 -14.628906 12.859375 -14.519531 12.609375 -14.375 C 12.367188 -14.226562 12.050781 -14.039062 11.65625 -13.8125 C 11.78125 -13.96875 11.835938 -14.078125 11.828125 -14.140625 C 11.816406 -14.210938 11.78125 -14.257812 11.71875 -14.28125 C 11.644531 -14.3125 11.550781 -14.316406 11.4375 -14.296875 C 11.363281 -14.273438 11.207031 -14.253906 10.96875 -14.234375 C 10.738281 -14.222656 10.445312 -14.207031 10.09375 -14.1875 C 9.738281 -14.175781 9.335938 -14.160156 8.890625 -14.140625 C 8.441406 -14.128906 7.96875 -14.125 7.46875 -14.125 C 7.4375 -12.9375 7.410156 -11.867188 7.390625 -10.921875 C 7.367188 -9.984375 7.347656 -9.148438 7.328125 -8.421875 C 7.316406 -7.703125 7.304688 -7.078125 7.296875 -6.546875 C 7.285156 -6.015625 7.273438 -5.554688 7.265625 -5.171875 C 7.242188 -4.296875 7.234375 -3.6875 7.234375 -3.34375 C 7.222656 -3.082031 7.1875 -2.820312 7.125 -2.5625 C 7.070312 -2.34375 6.988281 -2.101562 6.875 -1.84375 C 6.757812 -1.59375 6.59375 -1.363281 6.375 -1.15625 C 6.507812 -1.144531 6.640625 -1.132812 6.765625 -1.125 C 6.890625 -1.125 7.007812 -1.125 7.125 -1.125 C 7.457031 -1.125 7.757812 -1.140625 8.03125 -1.171875 C 8.300781 -1.210938 8.53125 -1.25 8.71875 -1.28125 C 8.914062 -1.3125 9.070312 -1.34375 9.1875 -1.375 C 9.300781 -1.414062 9.375 -1.445312 9.40625 -1.46875 C 9.03125 -1.207031 8.71875 -0.984375 8.46875 -0.796875 C 8.21875 -0.609375 7.992188 -0.457031 7.796875 -0.34375 C 7.597656 -0.226562 7.398438 -0.140625 7.203125 -0.078125 C 7.015625 -0.0234375 6.789062 0 6.53125 0 C 6.1875 0 5.894531 -0.0078125 5.65625 -0.03125 C 5.425781 -0.0625 5.1875 -0.078125 4.9375 -0.078125 C 4.820312 -0.078125 4.703125 -0.0703125 4.578125 -0.0625 C 4.453125 -0.0507812 4.3125 -0.03125 4.15625 0 C 4.351562 -0.164062 4.535156 -0.347656 4.703125 -0.546875 C 4.867188 -0.753906 5.007812 -1.003906 5.125 -1.296875 C 5.238281 -1.585938 5.328125 -1.9375 5.390625 -2.34375 C 5.453125 -2.75 5.484375 -3.242188 5.484375 -3.828125 L 5.484375 -14.0625 C 4.867188 -14.039062 4.265625 -14.023438 3.671875 -14.015625 C 3.078125 -14.003906 2.539062 -13.992188 2.0625 -13.984375 C 1.582031 -13.972656 1.179688 -13.957031 0.859375 -13.9375 C 0.535156 -13.925781 0.332031 -13.914062 0.25 -13.90625 C 0.0507812 -13.882812 -0.0859375 -13.890625 -0.171875 -13.921875 C -0.265625 -13.960938 -0.304688 -14.019531 -0.296875 -14.09375 C -0.285156 -14.164062 -0.234375 -14.253906 -0.140625 -14.359375 C -0.046875 -14.472656 0.0820312 -14.585938 0.25 -14.703125 L 1.703125 -15.765625 C 1.597656 -15.640625 1.566406 -15.539062 1.609375 -15.46875 C 1.648438 -15.40625 1.710938 -15.359375 1.796875 -15.328125 C 1.890625 -15.296875 2.019531 -15.273438 2.1875 -15.265625 C 2.300781 -15.265625 2.53125 -15.265625 2.875 -15.265625 C 3.226562 -15.273438 3.65625 -15.285156 4.15625 -15.296875 C 4.65625 -15.304688 5.210938 -15.316406 5.828125 -15.328125 C 6.441406 -15.335938 7.0625 -15.351562 7.6875 -15.375 C 8.320312 -15.394531 8.945312 -15.410156 9.5625 -15.421875 C 10.175781 -15.429688 10.734375 -15.441406 11.234375 -15.453125 C 11.734375 -15.472656 12.15625 -15.488281 12.5 -15.5 C 12.851562 -15.507812 13.085938 -15.515625 13.203125 -15.515625 C 13.421875 -15.523438 13.578125 -15.507812 13.671875 -15.46875 C 13.773438 -15.425781 13.832031 -15.367188 13.84375 -15.296875 C 13.851562 -15.222656 13.828125 -15.148438 13.765625 -15.078125 C 13.710938 -15.003906 13.644531 -14.945312 13.5625 -14.90625 Z M 9.40625 -1.46875 C 9.40625 -1.476562 9.410156 -1.484375 9.421875 -1.484375 Z M 9.40625 -1.46875 "/></g></g></g><g fill="#000000" fill-opacity="1"><g transform="translate(84.796324, 227.709646)"><g><path d="M 6.171875 -15.890625 C 5.835938 -15.671875 5.535156 -15.488281 5.265625 -15.34375 C 4.992188 -15.195312 4.738281 -15.070312 4.5 -14.96875 C 4.488281 -14.363281 4.472656 -13.796875 4.453125 -13.265625 C 4.441406 -12.742188 4.429688 -12.25 4.421875 -11.78125 C 4.410156 -11.320312 4.398438 -10.882812 4.390625 -10.46875 C 4.390625 -10.0625 4.382812 -9.664062 4.375 -9.28125 C 4.75 -9.363281 5.140625 -9.40625 5.546875 -9.40625 C 5.941406 -9.40625 6.394531 -9.398438 6.90625 -9.390625 C 7.425781 -9.378906 7.960938 -9.363281 8.515625 -9.34375 C 9.066406 -9.320312 9.625 -9.304688 10.1875 -9.296875 C 10.75 -9.285156 11.273438 -9.28125 11.765625 -9.28125 L 12.265625 -9.28125 L 12.265625 -14.59375 C 12.046875 -14.570312 11.773438 -14.546875 11.453125 -14.515625 C 11.140625 -14.484375 10.785156 -14.441406 10.390625 -14.390625 C 10.773438 -14.703125 11.117188 -14.9375 11.421875 -15.09375 C 11.722656 -15.257812 11.984375 -15.378906 12.203125 -15.453125 C 12.460938 -15.535156 12.691406 -15.585938 12.890625 -15.609375 C 13.148438 -15.609375 13.425781 -15.613281 13.71875 -15.625 C 14.019531 -15.632812 14.3125 -15.648438 14.59375 -15.671875 C 14.882812 -15.703125 15.144531 -15.734375 15.375 -15.765625 C 15.601562 -15.804688 15.773438 -15.847656 15.890625 -15.890625 C 15.554688 -15.671875 15.253906 -15.488281 14.984375 -15.34375 C 14.722656 -15.195312 14.472656 -15.070312 14.234375 -14.96875 C 14.191406 -13.675781 14.160156 -12.519531 14.140625 -11.5 C 14.117188 -10.488281 14.097656 -9.585938 14.078125 -8.796875 C 14.066406 -8.015625 14.054688 -7.332031 14.046875 -6.75 C 14.035156 -6.175781 14.023438 -5.6875 14.015625 -5.28125 C 13.992188 -4.332031 13.988281 -3.6875 14 -3.34375 C 13.988281 -3.082031 13.953125 -2.820312 13.890625 -2.5625 C 13.828125 -2.34375 13.738281 -2.101562 13.625 -1.84375 C 13.507812 -1.59375 13.347656 -1.363281 13.140625 -1.15625 C 13.265625 -1.144531 13.382812 -1.132812 13.5 -1.125 C 13.625 -1.125 13.75 -1.125 13.875 -1.125 C 14.207031 -1.125 14.503906 -1.140625 14.765625 -1.171875 C 15.035156 -1.210938 15.269531 -1.25 15.46875 -1.28125 C 15.664062 -1.3125 15.820312 -1.34375 15.9375 -1.375 C 16.050781 -1.414062 16.125 -1.445312 16.15625 -1.46875 C 15.769531 -1.207031 15.453125 -0.984375 15.203125 -0.796875 C 14.960938 -0.609375 14.738281 -0.457031 14.53125 -0.34375 C 14.332031 -0.226562 14.140625 -0.140625 13.953125 -0.078125 C 13.765625 -0.0234375 13.539062 0 13.28125 0 C 12.945312 0 12.660156 -0.0078125 12.421875 -0.03125 C 12.179688 -0.0625 11.941406 -0.078125 11.703125 -0.078125 C 11.578125 -0.078125 11.453125 -0.0703125 11.328125 -0.0625 C 11.203125 -0.0507812 11.0625 -0.03125 10.90625 0 C 11.132812 -0.101562 11.332031 -0.210938 11.5 -0.328125 C 11.675781 -0.453125 11.816406 -0.617188 11.921875 -0.828125 C 12.035156 -1.035156 12.117188 -1.3125 12.171875 -1.65625 C 12.234375 -2 12.265625 -2.460938 12.265625 -3.046875 L 12.265625 -8.59375 C 12.054688 -8.550781 11.820312 -8.515625 11.5625 -8.484375 C 11.3125 -8.453125 11.019531 -8.4375 10.6875 -8.4375 C 10.21875 -8.4375 9.675781 -8.453125 9.0625 -8.484375 C 8.445312 -8.515625 7.769531 -8.53125 7.03125 -8.53125 C 6.59375 -8.53125 6.148438 -8.519531 5.703125 -8.5 C 5.265625 -8.476562 4.816406 -8.441406 4.359375 -8.390625 C 4.328125 -7.347656 4.304688 -6.5 4.296875 -5.84375 C 4.285156 -5.1875 4.273438 -4.671875 4.265625 -4.296875 C 4.265625 -3.867188 4.265625 -3.550781 4.265625 -3.34375 C 4.253906 -3.082031 4.21875 -2.820312 4.15625 -2.5625 C 4.09375 -2.34375 4.003906 -2.101562 3.890625 -1.84375 C 3.773438 -1.59375 3.613281 -1.363281 3.40625 -1.15625 C 3.539062 -1.144531 3.664062 -1.132812 3.78125 -1.125 C 3.90625 -1.125 4.03125 -1.125 4.15625 -1.125 C 4.488281 -1.125 4.785156 -1.140625 5.046875 -1.171875 C 5.316406 -1.210938 5.550781 -1.25 5.75 -1.28125 C 5.945312 -1.3125 6.097656 -1.34375 6.203125 -1.375 C 6.316406 -1.414062 6.390625 -1.445312 6.421875 -1.46875 C 6.046875 -1.207031 5.734375 -0.984375 5.484375 -0.796875 C 5.234375 -0.609375 5.007812 -0.457031 4.8125 -0.34375 C 4.613281 -0.226562 4.421875 -0.140625 4.234375 -0.078125 C 4.046875 -0.0234375 3.820312 0 3.5625 0 C 3.21875 0 2.925781 -0.0078125 2.6875 -0.03125 C 2.445312 -0.0625 2.207031 -0.078125 1.96875 -0.078125 C 1.84375 -0.078125 1.71875 -0.0703125 1.59375 -0.0625 C 1.46875 -0.0507812 1.332031 -0.03125 1.1875 0 C 1.382812 -0.164062 1.5625 -0.347656 1.71875 -0.546875 C 1.882812 -0.753906 2.023438 -1.003906 2.140625 -1.296875 C 2.265625 -1.585938 2.359375 -1.9375 2.421875 -2.34375 C 2.484375 -2.75 2.515625 -3.242188 2.515625 -3.828125 L 2.515625 -8.0625 C 2.359375 -8.03125 2.195312 -7.992188 2.03125 -7.953125 C 1.875 -7.910156 1.71875 -7.859375 1.5625 -7.796875 C 1.71875 -7.941406 1.875 -8.070312 2.03125 -8.1875 C 2.195312 -8.3125 2.359375 -8.429688 2.515625 -8.546875 L 2.515625 -14.59375 C 2.296875 -14.570312 2.03125 -14.546875 1.71875 -14.515625 C 1.40625 -14.484375 1.050781 -14.441406 0.65625 -14.390625 C 1.039062 -14.703125 1.382812 -14.9375 1.6875 -15.09375 C 2 -15.257812 2.265625 -15.378906 2.484375 -15.453125 C 2.742188 -15.535156 2.972656 -15.585938 3.171875 -15.609375 C 3.421875 -15.609375 3.695312 -15.613281 4 -15.625 C 4.300781 -15.632812 4.59375 -15.648438 4.875 -15.671875 C 5.15625 -15.703125 5.410156 -15.734375 5.640625 -15.765625 C 5.878906 -15.804688 6.054688 -15.847656 6.171875 -15.890625 Z M 6.421875 -1.46875 C 6.429688 -1.476562 6.441406 -1.484375 6.453125 -1.484375 Z M 16.15625 -1.46875 C 16.164062 -1.476562 16.175781 -1.484375 16.1875 -1.484375 Z M 16.15625 -1.46875 "/></g></g></g><g fill="#000000" fill-opacity="1"><g transform="translate(102.982291, 227.709646)"><g><path d="M 9.375 -8.375 C 9.3125 -8.34375 9.21875 -8.285156 9.09375 -8.203125 C 8.976562 -8.128906 8.816406 -8.023438 8.609375 -7.890625 C 8.398438 -7.753906 8.125 -7.566406 7.78125 -7.328125 C 7.832031 -7.429688 7.828125 -7.507812 7.765625 -7.5625 C 7.710938 -7.625 7.632812 -7.664062 7.53125 -7.6875 C 7.414062 -7.71875 7.273438 -7.726562 7.109375 -7.71875 C 6.847656 -7.695312 6.476562 -7.671875 6 -7.640625 C 5.519531 -7.609375 4.976562 -7.582031 4.375 -7.5625 C 4.375 -6.425781 4.363281 -5.5 4.34375 -4.78125 C 4.332031 -4.070312 4.328125 -3.515625 4.328125 -3.109375 C 4.304688 -2.640625 4.289062 -2.296875 4.28125 -2.078125 C 4.269531 -1.941406 4.226562 -1.804688 4.15625 -1.671875 C 4.09375 -1.546875 4 -1.414062 3.875 -1.28125 C 3.75 -1.144531 3.578125 -1.023438 3.359375 -0.921875 L 8.203125 -0.921875 C 8.421875 -0.921875 8.648438 -0.929688 8.890625 -0.953125 C 9.085938 -0.984375 9.300781 -1.019531 9.53125 -1.0625 C 9.757812 -1.113281 9.976562 -1.191406 10.1875 -1.296875 C 9.832031 -0.960938 9.476562 -0.703125 9.125 -0.515625 C 8.78125 -0.335938 8.460938 -0.210938 8.171875 -0.140625 C 7.828125 -0.046875 7.5 0.00390625 7.1875 0.015625 C 6.488281 0.015625 5.832031 0.0195312 5.21875 0.03125 C 4.601562 0.0390625 4.046875 0.0546875 3.546875 0.078125 C 3.046875 0.0976562 2.617188 0.125 2.265625 0.15625 C 1.910156 0.1875 1.65625 0.222656 1.5 0.265625 C 1.71875 0.046875 1.890625 -0.164062 2.015625 -0.375 C 2.140625 -0.59375 2.234375 -0.832031 2.296875 -1.09375 C 2.367188 -1.363281 2.410156 -1.660156 2.421875 -1.984375 C 2.441406 -2.316406 2.445312 -2.710938 2.4375 -3.171875 L 2.4375 -7.546875 C 2.238281 -7.546875 2.039062 -7.546875 1.84375 -7.546875 C 1.644531 -7.554688 1.453125 -7.570312 1.265625 -7.59375 L 2.4375 -8.203125 C 2.4375 -8.585938 2.4375 -8.988281 2.4375 -9.40625 C 2.4375 -9.832031 2.4375 -10.285156 2.4375 -10.765625 C 2.4375 -11.253906 2.429688 -11.773438 2.421875 -12.328125 C 2.421875 -12.890625 2.421875 -13.5 2.421875 -14.15625 C 2.097656 -14.15625 1.796875 -14.160156 1.515625 -14.171875 C 1.234375 -14.179688 0.96875 -14.191406 0.71875 -14.203125 L 2.71875 -15.265625 C 4.0625 -15.265625 5.210938 -15.269531 6.171875 -15.28125 C 7.128906 -15.300781 7.921875 -15.320312 8.546875 -15.34375 C 9.273438 -15.375 9.878906 -15.40625 10.359375 -15.4375 C 10.609375 -15.4375 10.769531 -15.414062 10.84375 -15.375 C 10.925781 -15.332031 10.957031 -15.285156 10.9375 -15.234375 C 10.925781 -15.191406 10.882812 -15.144531 10.8125 -15.09375 C 10.738281 -15.050781 10.675781 -15.019531 10.625 -15 C 10.5625 -14.96875 10.453125 -14.90625 10.296875 -14.8125 C 10.160156 -14.738281 9.96875 -14.617188 9.71875 -14.453125 C 9.476562 -14.285156 9.144531 -14.054688 8.71875 -13.765625 C 8.863281 -13.921875 8.925781 -14.035156 8.90625 -14.109375 C 8.882812 -14.191406 8.832031 -14.25 8.75 -14.28125 C 8.65625 -14.3125 8.53125 -14.328125 8.375 -14.328125 C 8.238281 -14.316406 8.035156 -14.304688 7.765625 -14.296875 C 7.492188 -14.285156 7.175781 -14.269531 6.8125 -14.25 C 6.457031 -14.238281 6.066406 -14.226562 5.640625 -14.21875 C 5.222656 -14.207031 4.796875 -14.195312 4.359375 -14.1875 C 4.359375 -13.050781 4.359375 -12.03125 4.359375 -11.125 C 4.367188 -10.21875 4.375 -9.390625 4.375 -8.640625 C 5.101562 -8.640625 5.753906 -8.648438 6.328125 -8.671875 C 6.910156 -8.691406 7.410156 -8.710938 7.828125 -8.734375 C 8.304688 -8.765625 8.734375 -8.789062 9.109375 -8.8125 C 9.347656 -8.8125 9.503906 -8.789062 9.578125 -8.75 C 9.660156 -8.71875 9.691406 -8.675781 9.671875 -8.625 C 9.660156 -8.582031 9.617188 -8.535156 9.546875 -8.484375 C 9.484375 -8.429688 9.425781 -8.394531 9.375 -8.375 Z M 9.375 -8.375 "/></g></g></g><g fill="#000000" fill-opacity="1"><g transform="translate(115.798757, 227.709646)"><g/></g></g><g fill="#000000" fill-opacity="1"><g transform="translate(122.882775, 227.709646)"><g><path d="M 14.078125 -14.671875 C 13.953125 -14.503906 13.796875 -14.34375 13.609375 -14.1875 C 13.453125 -14.050781 13.257812 -13.90625 13.03125 -13.75 C 12.800781 -13.601562 12.53125 -13.472656 12.21875 -13.359375 C 12.320312 -13.484375 12.332031 -13.617188 12.25 -13.765625 C 12.164062 -13.910156 11.984375 -14.039062 11.703125 -14.15625 C 11.429688 -14.28125 11.054688 -14.378906 10.578125 -14.453125 C 10.109375 -14.535156 9.53125 -14.578125 8.84375 -14.578125 C 8.445312 -14.578125 8.019531 -14.535156 7.5625 -14.453125 C 7.101562 -14.367188 6.648438 -14.226562 6.203125 -14.03125 C 5.753906 -13.832031 5.320312 -13.566406 4.90625 -13.234375 C 4.488281 -12.910156 4.117188 -12.5 3.796875 -12 C 3.472656 -11.507812 3.21875 -10.921875 3.03125 -10.234375 C 2.84375 -9.554688 2.75 -8.773438 2.75 -7.890625 C 2.75 -6.992188 2.859375 -6.207031 3.078125 -5.53125 C 3.296875 -4.863281 3.582031 -4.285156 3.9375 -3.796875 C 4.300781 -3.304688 4.710938 -2.898438 5.171875 -2.578125 C 5.640625 -2.253906 6.113281 -1.992188 6.59375 -1.796875 C 7.082031 -1.597656 7.554688 -1.457031 8.015625 -1.375 C 8.484375 -1.300781 8.90625 -1.265625 9.28125 -1.265625 C 9.71875 -1.273438 10.171875 -1.304688 10.640625 -1.359375 C 11.046875 -1.410156 11.492188 -1.484375 11.984375 -1.578125 C 12.472656 -1.679688 12.953125 -1.820312 13.421875 -2 C 12.722656 -1.445312 12.078125 -1.023438 11.484375 -0.734375 C 10.898438 -0.441406 10.382812 -0.222656 9.9375 -0.078125 C 9.414062 0.078125 8.9375 0.164062 8.5 0.1875 C 7.445312 0.1875 6.453125 0.0351562 5.515625 -0.265625 C 4.585938 -0.578125 3.773438 -1.023438 3.078125 -1.609375 C 2.378906 -2.203125 1.828125 -2.925781 1.421875 -3.78125 C 1.015625 -4.632812 0.8125 -5.601562 0.8125 -6.6875 C 0.8125 -7.363281 0.875 -7.992188 1 -8.578125 C 1.132812 -9.160156 1.304688 -9.691406 1.515625 -10.171875 C 1.722656 -10.648438 1.957031 -11.082031 2.21875 -11.46875 C 2.476562 -11.863281 2.742188 -12.207031 3.015625 -12.5 C 3.296875 -12.800781 3.566406 -13.050781 3.828125 -13.25 C 4.085938 -13.445312 4.3125 -13.597656 4.5 -13.703125 C 4.6875 -13.804688 4.921875 -13.925781 5.203125 -14.0625 C 5.492188 -14.195312 5.8125 -14.332031 6.15625 -14.46875 C 6.507812 -14.613281 6.875 -14.753906 7.25 -14.890625 C 7.632812 -15.023438 8.023438 -15.144531 8.421875 -15.25 C 8.828125 -15.351562 9.21875 -15.4375 9.59375 -15.5 C 9.976562 -15.570312 10.34375 -15.609375 10.6875 -15.609375 C 11.445312 -15.609375 12.0625 -15.570312 12.53125 -15.5 C 13 -15.425781 13.351562 -15.335938 13.59375 -15.234375 C 13.84375 -15.128906 14 -15.023438 14.0625 -14.921875 C 14.125 -14.816406 14.128906 -14.734375 14.078125 -14.671875 Z M 14.078125 -14.671875 "/></g></g></g><g fill="#000000" fill-opacity="1"><g transform="translate(138.752278, 227.709646)"><g><path d="M 16.015625 -8.28125 C 16.015625 -7.375 15.863281 -6.535156 15.5625 -5.765625 C 15.269531 -5.003906 14.878906 -4.304688 14.390625 -3.671875 C 13.898438 -3.035156 13.335938 -2.472656 12.703125 -1.984375 C 12.078125 -1.503906 11.429688 -1.097656 10.765625 -0.765625 C 10.109375 -0.429688 9.460938 -0.175781 8.828125 0 C 8.203125 0.164062 7.632812 0.25 7.125 0.25 C 6.695312 0.25 6.242188 0.179688 5.765625 0.046875 C 5.296875 -0.0859375 4.828125 -0.28125 4.359375 -0.53125 C 3.890625 -0.789062 3.441406 -1.113281 3.015625 -1.5 C 2.585938 -1.894531 2.210938 -2.347656 1.890625 -2.859375 C 1.566406 -3.367188 1.304688 -3.9375 1.109375 -4.5625 C 0.921875 -5.1875 0.828125 -5.875 0.828125 -6.625 C 0.828125 -7.625 0.96875 -8.535156 1.25 -9.359375 C 1.53125 -10.179688 1.898438 -10.921875 2.359375 -11.578125 C 2.816406 -12.242188 3.335938 -12.820312 3.921875 -13.3125 C 4.503906 -13.800781 5.101562 -14.207031 5.71875 -14.53125 C 6.34375 -14.851562 6.953125 -15.09375 7.546875 -15.25 C 8.140625 -15.414062 8.675781 -15.5 9.15625 -15.5 C 9.664062 -15.5 10.1875 -15.441406 10.71875 -15.328125 C 11.25 -15.222656 11.769531 -15.050781 12.28125 -14.8125 C 12.789062 -14.582031 13.269531 -14.28125 13.71875 -13.90625 C 14.175781 -13.539062 14.570312 -13.085938 14.90625 -12.546875 C 15.25 -12.015625 15.519531 -11.394531 15.71875 -10.6875 C 15.914062 -9.976562 16.015625 -9.175781 16.015625 -8.28125 Z M 14.078125 -7.625 C 14.078125 -8.414062 13.976562 -9.128906 13.78125 -9.765625 C 13.59375 -10.398438 13.335938 -10.960938 13.015625 -11.453125 C 12.691406 -11.953125 12.316406 -12.378906 11.890625 -12.734375 C 11.472656 -13.097656 11.035156 -13.394531 10.578125 -13.625 C 10.117188 -13.863281 9.648438 -14.035156 9.171875 -14.140625 C 8.703125 -14.253906 8.257812 -14.3125 7.84375 -14.3125 C 7.175781 -14.3125 6.53125 -14.1875 5.90625 -13.9375 C 5.28125 -13.6875 4.722656 -13.289062 4.234375 -12.75 C 3.742188 -12.207031 3.351562 -11.515625 3.0625 -10.671875 C 2.769531 -9.828125 2.625 -8.8125 2.625 -7.625 C 2.625 -6.84375 2.738281 -6.132812 2.96875 -5.5 C 3.195312 -4.875 3.492188 -4.320312 3.859375 -3.84375 C 4.234375 -3.363281 4.648438 -2.953125 5.109375 -2.609375 C 5.578125 -2.273438 6.050781 -2 6.53125 -1.78125 C 7.019531 -1.570312 7.488281 -1.414062 7.9375 -1.3125 C 8.382812 -1.207031 8.773438 -1.15625 9.109375 -1.15625 C 9.441406 -1.15625 9.796875 -1.207031 10.171875 -1.3125 C 10.546875 -1.414062 10.914062 -1.570312 11.28125 -1.78125 C 11.65625 -2 12.007812 -2.28125 12.34375 -2.625 C 12.675781 -2.96875 12.972656 -3.375 13.234375 -3.84375 C 13.492188 -4.320312 13.695312 -4.875 13.84375 -5.5 C 14 -6.132812 14.078125 -6.84375 14.078125 -7.625 Z M 14.078125 -7.625 "/></g></g></g><g fill="#000000" fill-opacity="1"><g transform="translate(157.226467, 227.709646)"><g><path d="M 6.171875 -15.8125 C 5.835938 -15.59375 5.535156 -15.40625 5.265625 -15.25 C 4.992188 -15.09375 4.738281 -14.96875 4.5 -14.875 C 4.46875 -13.582031 4.4375 -12.425781 4.40625 -11.40625 C 4.382812 -10.394531 4.363281 -9.492188 4.34375 -8.703125 C 4.332031 -7.921875 4.320312 -7.242188 4.3125 -6.671875 C 4.300781 -6.097656 4.289062 -5.609375 4.28125 -5.203125 C 4.257812 -4.253906 4.253906 -3.601562 4.265625 -3.25 C 4.253906 -2.988281 4.222656 -2.738281 4.171875 -2.5 C 4.128906 -2.289062 4.0625 -2.070312 3.96875 -1.84375 C 3.875 -1.613281 3.75 -1.414062 3.59375 -1.25 C 4.019531 -1.238281 4.414062 -1.234375 4.78125 -1.234375 C 5.15625 -1.234375 5.515625 -1.234375 5.859375 -1.234375 C 6.835938 -1.234375 7.640625 -1.242188 8.265625 -1.265625 C 8.898438 -1.296875 9.40625 -1.332031 9.78125 -1.375 C 10.164062 -1.414062 10.4375 -1.453125 10.59375 -1.484375 C 10.75 -1.515625 10.835938 -1.535156 10.859375 -1.546875 C 10.484375 -1.285156 10.171875 -1.0625 9.921875 -0.875 C 9.671875 -0.695312 9.445312 -0.546875 9.25 -0.421875 C 9.0625 -0.304688 8.875 -0.21875 8.6875 -0.15625 C 8.5 -0.101562 8.28125 -0.078125 8.03125 -0.078125 L 6.375 -0.078125 C 5.914062 -0.078125 5.414062 -0.078125 4.875 -0.078125 C 4.332031 -0.078125 3.816406 -0.0703125 3.328125 -0.0625 C 2.835938 -0.0507812 2.398438 -0.03125 2.015625 0 C 1.628906 0.0195312 1.351562 0.046875 1.1875 0.078125 C 1.382812 -0.0859375 1.5625 -0.269531 1.71875 -0.46875 C 1.882812 -0.664062 2.023438 -0.910156 2.140625 -1.203125 C 2.265625 -1.492188 2.359375 -1.84375 2.421875 -2.25 C 2.484375 -2.664062 2.515625 -3.160156 2.515625 -3.734375 L 2.515625 -14.515625 C 2.296875 -14.492188 2.03125 -14.460938 1.71875 -14.421875 C 1.40625 -14.390625 1.050781 -14.347656 0.65625 -14.296875 C 1.039062 -14.609375 1.382812 -14.84375 1.6875 -15 C 2 -15.164062 2.265625 -15.289062 2.484375 -15.375 C 2.742188 -15.457031 2.972656 -15.503906 3.171875 -15.515625 C 3.421875 -15.515625 3.695312 -15.519531 4 -15.53125 C 4.300781 -15.539062 4.59375 -15.554688 4.875 -15.578125 C 5.15625 -15.609375 5.410156 -15.644531 5.640625 -15.6875 C 5.878906 -15.726562 6.054688 -15.769531 6.171875 -15.8125 Z M 10.859375 -1.546875 L 10.859375 -1.5625 C 10.867188 -1.5625 10.878906 -1.5625 10.890625 -1.5625 Z M 10.859375 -1.546875 "/></g></g></g><g fill="#000000" fill-opacity="1"><g transform="translate(169.252988, 227.709646)"><g><path d="M 6.171875 -15.8125 C 5.835938 -15.59375 5.535156 -15.40625 5.265625 -15.25 C 4.992188 -15.09375 4.738281 -14.96875 4.5 -14.875 C 4.46875 -13.582031 4.4375 -12.425781 4.40625 -11.40625 C 4.382812 -10.394531 4.363281 -9.492188 4.34375 -8.703125 C 4.332031 -7.921875 4.320312 -7.242188 4.3125 -6.671875 C 4.300781 -6.097656 4.289062 -5.609375 4.28125 -5.203125 C 4.257812 -4.253906 4.253906 -3.601562 4.265625 -3.25 C 4.253906 -2.988281 4.222656 -2.738281 4.171875 -2.5 C 4.128906 -2.289062 4.0625 -2.070312 3.96875 -1.84375 C 3.875 -1.613281 3.75 -1.414062 3.59375 -1.25 C 4.019531 -1.238281 4.414062 -1.234375 4.78125 -1.234375 C 5.15625 -1.234375 5.515625 -1.234375 5.859375 -1.234375 C 6.835938 -1.234375 7.640625 -1.242188 8.265625 -1.265625 C 8.898438 -1.296875 9.40625 -1.332031 9.78125 -1.375 C 10.164062 -1.414062 10.4375 -1.453125 10.59375 -1.484375 C 10.75 -1.515625 10.835938 -1.535156 10.859375 -1.546875 C 10.484375 -1.285156 10.171875 -1.0625 9.921875 -0.875 C 9.671875 -0.695312 9.445312 -0.546875 9.25 -0.421875 C 9.0625 -0.304688 8.875 -0.21875 8.6875 -0.15625 C 8.5 -0.101562 8.28125 -0.078125 8.03125 -0.078125 L 6.375 -0.078125 C 5.914062 -0.078125 5.414062 -0.078125 4.875 -0.078125 C 4.332031 -0.078125 3.816406 -0.0703125 3.328125 -0.0625 C 2.835938 -0.0507812 2.398438 -0.03125 2.015625 0 C 1.628906 0.0195312 1.351562 0.046875 1.1875 0.078125 C 1.382812 -0.0859375 1.5625 -0.269531 1.71875 -0.46875 C 1.882812 -0.664062 2.023438 -0.910156 2.140625 -1.203125 C 2.265625 -1.492188 2.359375 -1.84375 2.421875 -2.25 C 2.484375 -2.664062 2.515625 -3.160156 2.515625 -3.734375 L 2.515625 -14.515625 C 2.296875 -14.492188 2.03125 -14.460938 1.71875 -14.421875 C 1.40625 -14.390625 1.050781 -14.347656 0.65625 -14.296875 C 1.039062 -14.609375 1.382812 -14.84375 1.6875 -15 C 2 -15.164062 2.265625 -15.289062 2.484375 -15.375 C 2.742188 -15.457031 2.972656 -15.503906 3.171875 -15.515625 C 3.421875 -15.515625 3.695312 -15.519531 4 -15.53125 C 4.300781 -15.539062 4.59375 -15.554688 4.875 -15.578125 C 5.15625 -15.609375 5.410156 -15.644531 5.640625 -15.6875 C 5.878906 -15.726562 6.054688 -15.769531 6.171875 -15.8125 Z M 10.859375 -1.546875 L 10.859375 -1.5625 C 10.867188 -1.5625 10.878906 -1.5625 10.890625 -1.5625 Z M 10.859375 -1.546875 "/></g></g></g><g fill="#000000" fill-opacity="1"><g transform="translate(181.279508, 227.709646)"><g><path d="M 9.375 -8.375 C 9.3125 -8.34375 9.21875 -8.285156 9.09375 -8.203125 C 8.976562 -8.128906 8.816406 -8.023438 8.609375 -7.890625 C 8.398438 -7.753906 8.125 -7.566406 7.78125 -7.328125 C 7.832031 -7.429688 7.828125 -7.507812 7.765625 -7.5625 C 7.710938 -7.625 7.632812 -7.664062 7.53125 -7.6875 C 7.414062 -7.71875 7.273438 -7.726562 7.109375 -7.71875 C 6.847656 -7.695312 6.476562 -7.671875 6 -7.640625 C 5.519531 -7.609375 4.976562 -7.582031 4.375 -7.5625 C 4.375 -6.425781 4.363281 -5.5 4.34375 -4.78125 C 4.332031 -4.070312 4.328125 -3.515625 4.328125 -3.109375 C 4.304688 -2.640625 4.289062 -2.296875 4.28125 -2.078125 C 4.269531 -1.941406 4.226562 -1.804688 4.15625 -1.671875 C 4.09375 -1.546875 4 -1.414062 3.875 -1.28125 C 3.75 -1.144531 3.578125 -1.023438 3.359375 -0.921875 L 8.203125 -0.921875 C 8.421875 -0.921875 8.648438 -0.929688 8.890625 -0.953125 C 9.085938 -0.984375 9.300781 -1.019531 9.53125 -1.0625 C 9.757812 -1.113281 9.976562 -1.191406 10.1875 -1.296875 C 9.832031 -0.960938 9.476562 -0.703125 9.125 -0.515625 C 8.78125 -0.335938 8.460938 -0.210938 8.171875 -0.140625 C 7.828125 -0.046875 7.5 0.00390625 7.1875 0.015625 C 6.488281 0.015625 5.832031 0.0195312 5.21875 0.03125 C 4.601562 0.0390625 4.046875 0.0546875 3.546875 0.078125 C 3.046875 0.0976562 2.617188 0.125 2.265625 0.15625 C 1.910156 0.1875 1.65625 0.222656 1.5 0.265625 C 1.71875 0.046875 1.890625 -0.164062 2.015625 -0.375 C 2.140625 -0.59375 2.234375 -0.832031 2.296875 -1.09375 C 2.367188 -1.363281 2.410156 -1.660156 2.421875 -1.984375 C 2.441406 -2.316406 2.445312 -2.710938 2.4375 -3.171875 L 2.4375 -7.546875 C 2.238281 -7.546875 2.039062 -7.546875 1.84375 -7.546875 C 1.644531 -7.554688 1.453125 -7.570312 1.265625 -7.59375 L 2.4375 -8.203125 C 2.4375 -8.585938 2.4375 -8.988281 2.4375 -9.40625 C 2.4375 -9.832031 2.4375 -10.285156 2.4375 -10.765625 C 2.4375 -11.253906 2.429688 -11.773438 2.421875 -12.328125 C 2.421875 -12.890625 2.421875 -13.5 2.421875 -14.15625 C 2.097656 -14.15625 1.796875 -14.160156 1.515625 -14.171875 C 1.234375 -14.179688 0.96875 -14.191406 0.71875 -14.203125 L 2.71875 -15.265625 C 4.0625 -15.265625 5.210938 -15.269531 6.171875 -15.28125 C 7.128906 -15.300781 7.921875 -15.320312 8.546875 -15.34375 C 9.273438 -15.375 9.878906 -15.40625 10.359375 -15.4375 C 10.609375 -15.4375 10.769531 -15.414062 10.84375 -15.375 C 10.925781 -15.332031 10.957031 -15.285156 10.9375 -15.234375 C 10.925781 -15.191406 10.882812 -15.144531 10.8125 -15.09375 C 10.738281 -15.050781 10.675781 -15.019531 10.625 -15 C 10.5625 -14.96875 10.453125 -14.90625 10.296875 -14.8125 C 10.160156 -14.738281 9.96875 -14.617188 9.71875 -14.453125 C 9.476562 -14.285156 9.144531 -14.054688 8.71875 -13.765625 C 8.863281 -13.921875 8.925781 -14.035156 8.90625 -14.109375 C 8.882812 -14.191406 8.832031 -14.25 8.75 -14.28125 C 8.65625 -14.3125 8.53125 -14.328125 8.375 -14.328125 C 8.238281 -14.316406 8.035156 -14.304688 7.765625 -14.296875 C 7.492188 -14.285156 7.175781 -14.269531 6.8125 -14.25 C 6.457031 -14.238281 6.066406 -14.226562 5.640625 -14.21875 C 5.222656 -14.207031 4.796875 -14.195312 4.359375 -14.1875 C 4.359375 -13.050781 4.359375 -12.03125 4.359375 -11.125 C 4.367188 -10.21875 4.375 -9.390625 4.375 -8.640625 C 5.101562 -8.640625 5.753906 -8.648438 6.328125 -8.671875 C 6.910156 -8.691406 7.410156 -8.710938 7.828125 -8.734375 C 8.304688 -8.765625 8.734375 -8.789062 9.109375 -8.8125 C 9.347656 -8.8125 9.503906 -8.789062 9.578125 -8.75 C 9.660156 -8.71875 9.691406 -8.675781 9.671875 -8.625 C 9.660156 -8.582031 9.617188 -8.535156 9.546875 -8.484375 C 9.484375 -8.429688 9.425781 -8.394531 9.375 -8.375 Z M 9.375 -8.375 "/></g></g></g><g fill="#000000" fill-opacity="1"><g transform="translate(194.09598, 227.709646)"><g><path d="M 14.078125 -14.671875 C 13.953125 -14.503906 13.796875 -14.34375 13.609375 -14.1875 C 13.453125 -14.050781 13.257812 -13.90625 13.03125 -13.75 C 12.800781 -13.601562 12.53125 -13.472656 12.21875 -13.359375 C 12.320312 -13.484375 12.332031 -13.617188 12.25 -13.765625 C 12.164062 -13.910156 11.984375 -14.039062 11.703125 -14.15625 C 11.429688 -14.28125 11.054688 -14.378906 10.578125 -14.453125 C 10.109375 -14.535156 9.53125 -14.578125 8.84375 -14.578125 C 8.445312 -14.578125 8.019531 -14.535156 7.5625 -14.453125 C 7.101562 -14.367188 6.648438 -14.226562 6.203125 -14.03125 C 5.753906 -13.832031 5.320312 -13.566406 4.90625 -13.234375 C 4.488281 -12.910156 4.117188 -12.5 3.796875 -12 C 3.472656 -11.507812 3.21875 -10.921875 3.03125 -10.234375 C 2.84375 -9.554688 2.75 -8.773438 2.75 -7.890625 C 2.75 -6.992188 2.859375 -6.207031 3.078125 -5.53125 C 3.296875 -4.863281 3.582031 -4.285156 3.9375 -3.796875 C 4.300781 -3.304688 4.710938 -2.898438 5.171875 -2.578125 C 5.640625 -2.253906 6.113281 -1.992188 6.59375 -1.796875 C 7.082031 -1.597656 7.554688 -1.457031 8.015625 -1.375 C 8.484375 -1.300781 8.90625 -1.265625 9.28125 -1.265625 C 9.570312 -1.265625 9.878906 -1.28125 10.203125 -1.3125 C 10.484375 -1.332031 10.800781 -1.367188 11.15625 -1.421875 C 11.507812 -1.472656 11.878906 -1.546875 12.265625 -1.640625 C 12.359375 -1.742188 12.429688 -1.851562 12.484375 -1.96875 C 12.546875 -2.09375 12.597656 -2.207031 12.640625 -2.3125 C 12.671875 -2.414062 12.695312 -2.523438 12.71875 -2.640625 C 12.757812 -3.378906 12.773438 -4.109375 12.765625 -4.828125 C 12.765625 -5.546875 12.765625 -6.265625 12.765625 -6.984375 C 12.566406 -7.003906 12.351562 -7.023438 12.125 -7.046875 C 11.894531 -7.078125 11.671875 -7.09375 11.453125 -7.09375 C 11.273438 -7.09375 11.113281 -7.082031 10.96875 -7.0625 C 10.820312 -7.050781 10.691406 -7.019531 10.578125 -6.96875 C 10.984375 -7.21875 11.328125 -7.410156 11.609375 -7.546875 C 11.898438 -7.691406 12.132812 -7.800781 12.3125 -7.875 C 12.53125 -7.957031 12.707031 -8.015625 12.84375 -8.046875 C 13 -8.066406 13.191406 -8.082031 13.421875 -8.09375 C 13.660156 -8.113281 13.898438 -8.128906 14.140625 -8.140625 C 14.390625 -8.148438 14.632812 -8.160156 14.875 -8.171875 C 15.113281 -8.191406 15.320312 -8.222656 15.5 -8.265625 L 14.75 -7.734375 C 14.738281 -6.992188 14.722656 -6.375 14.703125 -5.875 C 14.679688 -5.382812 14.664062 -4.992188 14.65625 -4.703125 C 14.632812 -4.347656 14.613281 -4.066406 14.59375 -3.859375 C 14.59375 -3.628906 14.550781 -3.40625 14.46875 -3.1875 C 14.394531 -2.976562 14.28125 -2.769531 14.125 -2.5625 C 13.96875 -2.363281 13.757812 -2.164062 13.5 -1.96875 C 13.238281 -1.769531 12.921875 -1.566406 12.546875 -1.359375 C 11.972656 -0.972656 11.441406 -0.675781 10.953125 -0.46875 C 10.460938 -0.257812 10.035156 -0.109375 9.671875 -0.015625 C 9.242188 0.0976562 8.851562 0.164062 8.5 0.1875 C 7.445312 0.1875 6.453125 0.0351562 5.515625 -0.265625 C 4.585938 -0.578125 3.773438 -1.023438 3.078125 -1.609375 C 2.378906 -2.203125 1.828125 -2.925781 1.421875 -3.78125 C 1.015625 -4.632812 0.8125 -5.601562 0.8125 -6.6875 C 0.8125 -7.363281 0.875 -7.992188 1 -8.578125 C 1.132812 -9.160156 1.304688 -9.691406 1.515625 -10.171875 C 1.722656 -10.648438 1.957031 -11.082031 2.21875 -11.46875 C 2.476562 -11.863281 2.742188 -12.207031 3.015625 -12.5 C 3.296875 -12.800781 3.566406 -13.050781 3.828125 -13.25 C 4.085938 -13.445312 4.3125 -13.597656 4.5 -13.703125 C 4.6875 -13.804688 4.921875 -13.925781 5.203125 -14.0625 C 5.492188 -14.195312 5.8125 -14.332031 6.15625 -14.46875 C 6.507812 -14.613281 6.875 -14.753906 7.25 -14.890625 C 7.632812 -15.023438 8.023438 -15.144531 8.421875 -15.25 C 8.828125 -15.351562 9.21875 -15.4375 9.59375 -15.5 C 9.976562 -15.570312 10.34375 -15.609375 10.6875 -15.609375 C 11.445312 -15.609375 12.0625 -15.570312 12.53125 -15.5 C 13 -15.425781 13.351562 -15.335938 13.59375 -15.234375 C 13.84375 -15.128906 14 -15.023438 14.0625 -14.921875 C 14.125 -14.816406 14.128906 -14.734375 14.078125 -14.671875 Z M 14.078125 -14.671875 "/></g></g></g><g fill="#000000" fill-opacity="1"><g transform="translate(211.60943, 227.709646)"><g><path d="M 9.375 -8.375 C 9.3125 -8.34375 9.21875 -8.285156 9.09375 -8.203125 C 8.976562 -8.128906 8.816406 -8.023438 8.609375 -7.890625 C 8.398438 -7.753906 8.125 -7.566406 7.78125 -7.328125 C 7.832031 -7.429688 7.828125 -7.507812 7.765625 -7.5625 C 7.710938 -7.625 7.632812 -7.664062 7.53125 -7.6875 C 7.414062 -7.71875 7.273438 -7.726562 7.109375 -7.71875 C 6.847656 -7.695312 6.476562 -7.671875 6 -7.640625 C 5.519531 -7.609375 4.976562 -7.582031 4.375 -7.5625 C 4.375 -6.425781 4.363281 -5.5 4.34375 -4.78125 C 4.332031 -4.070312 4.328125 -3.515625 4.328125 -3.109375 C 4.304688 -2.640625 4.289062 -2.296875 4.28125 -2.078125 C 4.269531 -1.941406 4.226562 -1.804688 4.15625 -1.671875 C 4.09375 -1.546875 4 -1.414062 3.875 -1.28125 C 3.75 -1.144531 3.578125 -1.023438 3.359375 -0.921875 L 8.203125 -0.921875 C 8.421875 -0.921875 8.648438 -0.929688 8.890625 -0.953125 C 9.085938 -0.984375 9.300781 -1.019531 9.53125 -1.0625 C 9.757812 -1.113281 9.976562 -1.191406 10.1875 -1.296875 C 9.832031 -0.960938 9.476562 -0.703125 9.125 -0.515625 C 8.78125 -0.335938 8.460938 -0.210938 8.171875 -0.140625 C 7.828125 -0.046875 7.5 0.00390625 7.1875 0.015625 C 6.488281 0.015625 5.832031 0.0195312 5.21875 0.03125 C 4.601562 0.0390625 4.046875 0.0546875 3.546875 0.078125 C 3.046875 0.0976562 2.617188 0.125 2.265625 0.15625 C 1.910156 0.1875 1.65625 0.222656 1.5 0.265625 C 1.71875 0.046875 1.890625 -0.164062 2.015625 -0.375 C 2.140625 -0.59375 2.234375 -0.832031 2.296875 -1.09375 C 2.367188 -1.363281 2.410156 -1.660156 2.421875 -1.984375 C 2.441406 -2.316406 2.445312 -2.710938 2.4375 -3.171875 L 2.4375 -7.546875 C 2.238281 -7.546875 2.039062 -7.546875 1.84375 -7.546875 C 1.644531 -7.554688 1.453125 -7.570312 1.265625 -7.59375 L 2.4375 -8.203125 C 2.4375 -8.585938 2.4375 -8.988281 2.4375 -9.40625 C 2.4375 -9.832031 2.4375 -10.285156 2.4375 -10.765625 C 2.4375 -11.253906 2.429688 -11.773438 2.421875 -12.328125 C 2.421875 -12.890625 2.421875 -13.5 2.421875 -14.15625 C 2.097656 -14.15625 1.796875 -14.160156 1.515625 -14.171875 C 1.234375 -14.179688 0.96875 -14.191406 0.71875 -14.203125 L 2.71875 -15.265625 C 4.0625 -15.265625 5.210938 -15.269531 6.171875 -15.28125 C 7.128906 -15.300781 7.921875 -15.320312 8.546875 -15.34375 C 9.273438 -15.375 9.878906 -15.40625 10.359375 -15.4375 C 10.609375 -15.4375 10.769531 -15.414062 10.84375 -15.375 C 10.925781 -15.332031 10.957031 -15.285156 10.9375 -15.234375 C 10.925781 -15.191406 10.882812 -15.144531 10.8125 -15.09375 C 10.738281 -15.050781 10.675781 -15.019531 10.625 -15 C 10.5625 -14.96875 10.453125 -14.90625 10.296875 -14.8125 C 10.160156 -14.738281 9.96875 -14.617188 9.71875 -14.453125 C 9.476562 -14.285156 9.144531 -14.054688 8.71875 -13.765625 C 8.863281 -13.921875 8.925781 -14.035156 8.90625 -14.109375 C 8.882812 -14.191406 8.832031 -14.25 8.75 -14.28125 C 8.65625 -14.3125 8.53125 -14.328125 8.375 -14.328125 C 8.238281 -14.316406 8.035156 -14.304688 7.765625 -14.296875 C 7.492188 -14.285156 7.175781 -14.269531 6.8125 -14.25 C 6.457031 -14.238281 6.066406 -14.226562 5.640625 -14.21875 C 5.222656 -14.207031 4.796875 -14.195312 4.359375 -14.1875 C 4.359375 -13.050781 4.359375 -12.03125 4.359375 -11.125 C 4.367188 -10.21875 4.375 -9.390625 4.375 -8.640625 C 5.101562 -8.640625 5.753906 -8.648438 6.328125 -8.671875 C 6.910156 -8.691406 7.410156 -8.710938 7.828125 -8.734375 C 8.304688 -8.765625 8.734375 -8.789062 9.109375 -8.8125 C 9.347656 -8.8125 9.503906 -8.789062 9.578125 -8.75 C 9.660156 -8.71875 9.691406 -8.675781 9.671875 -8.625 C 9.660156 -8.582031 9.617188 -8.535156 9.546875 -8.484375 C 9.484375 -8.429688 9.425781 -8.394531 9.375 -8.375 Z M 9.375 -8.375 "/></g></g></g><g fill="#000000" fill-opacity="1"><g transform="translate(224.425903, 227.709646)"><g/></g></g><g fill="#000000" fill-opacity="1"><g transform="translate(231.509927, 227.709646)"><g><path d="M 10.15625 -4.5 C 10.15625 -4.132812 10.035156 -3.757812 9.796875 -3.375 C 9.566406 -3 9.257812 -2.628906 8.875 -2.265625 C 8.5 -1.910156 8.070312 -1.570312 7.59375 -1.25 C 7.125 -0.925781 6.648438 -0.640625 6.171875 -0.390625 C 5.691406 -0.148438 5.226562 0.0390625 4.78125 0.1875 C 4.34375 0.332031 3.972656 0.410156 3.671875 0.421875 C 3.378906 0.429688 3.066406 0.40625 2.734375 0.34375 C 2.398438 0.28125 2.082031 0.195312 1.78125 0.09375 C 1.476562 0 1.207031 -0.0976562 0.96875 -0.203125 C 0.726562 -0.316406 0.566406 -0.414062 0.484375 -0.5 C 0.429688 -0.5625 0.390625 -0.625 0.359375 -0.6875 C 0.328125 -0.757812 0.3125 -0.832031 0.3125 -0.90625 C 0.3125 -0.988281 0.332031 -1.070312 0.375 -1.15625 C 0.425781 -1.25 0.503906 -1.34375 0.609375 -1.4375 C 0.710938 -1.519531 0.835938 -1.617188 0.984375 -1.734375 C 1.109375 -1.835938 1.269531 -1.96875 1.46875 -2.125 C 1.664062 -2.289062 1.910156 -2.488281 2.203125 -2.71875 C 2.097656 -2.601562 2.03125 -2.5 2 -2.40625 C 1.976562 -2.320312 1.96875 -2.238281 1.96875 -2.15625 C 1.976562 -2.070312 2.007812 -1.992188 2.0625 -1.921875 C 2.132812 -1.828125 2.257812 -1.722656 2.4375 -1.609375 C 2.613281 -1.492188 2.828125 -1.390625 3.078125 -1.296875 C 3.328125 -1.203125 3.609375 -1.117188 3.921875 -1.046875 C 4.242188 -0.984375 4.578125 -0.953125 4.921875 -0.953125 C 5.335938 -0.953125 5.75 -0.992188 6.15625 -1.078125 C 6.570312 -1.160156 6.945312 -1.296875 7.28125 -1.484375 C 7.613281 -1.679688 7.878906 -1.9375 8.078125 -2.25 C 8.285156 -2.570312 8.390625 -2.96875 8.390625 -3.4375 C 8.390625 -3.875 8.285156 -4.253906 8.078125 -4.578125 C 7.878906 -4.910156 7.613281 -5.207031 7.28125 -5.46875 C 6.957031 -5.738281 6.582031 -5.976562 6.15625 -6.1875 C 5.738281 -6.40625 5.3125 -6.617188 4.875 -6.828125 C 4.4375 -7.046875 4.003906 -7.265625 3.578125 -7.484375 C 3.160156 -7.710938 2.785156 -7.960938 2.453125 -8.234375 C 2.128906 -8.503906 1.863281 -8.8125 1.65625 -9.15625 C 1.457031 -9.507812 1.359375 -9.910156 1.359375 -10.359375 C 1.359375 -10.804688 1.460938 -11.238281 1.671875 -11.65625 C 1.890625 -12.082031 2.175781 -12.484375 2.53125 -12.859375 C 2.894531 -13.234375 3.304688 -13.578125 3.765625 -13.890625 C 4.222656 -14.210938 4.691406 -14.488281 5.171875 -14.71875 C 5.660156 -14.957031 6.132812 -15.140625 6.59375 -15.265625 C 7.0625 -15.398438 7.484375 -15.472656 7.859375 -15.484375 C 8.222656 -15.484375 8.570312 -15.460938 8.90625 -15.421875 C 9.238281 -15.390625 9.519531 -15.332031 9.75 -15.25 C 9.976562 -15.175781 10.132812 -15.078125 10.21875 -14.953125 C 10.3125 -14.835938 10.289062 -14.707031 10.15625 -14.5625 C 10.050781 -14.4375 9.921875 -14.304688 9.765625 -14.171875 C 9.617188 -14.054688 9.441406 -13.921875 9.234375 -13.765625 C 9.035156 -13.617188 8.785156 -13.457031 8.484375 -13.28125 C 8.546875 -13.375 8.578125 -13.453125 8.578125 -13.515625 C 8.585938 -13.585938 8.585938 -13.644531 8.578125 -13.6875 C 8.546875 -13.738281 8.515625 -13.78125 8.484375 -13.8125 C 8.429688 -13.851562 8.34375 -13.898438 8.21875 -13.953125 C 8.09375 -14.003906 7.9375 -14.050781 7.75 -14.09375 C 7.570312 -14.144531 7.363281 -14.1875 7.125 -14.21875 C 6.894531 -14.25 6.644531 -14.265625 6.375 -14.265625 C 5.957031 -14.265625 5.550781 -14.210938 5.15625 -14.109375 C 4.757812 -14.015625 4.410156 -13.859375 4.109375 -13.640625 C 3.804688 -13.429688 3.5625 -13.160156 3.375 -12.828125 C 3.195312 -12.503906 3.109375 -12.117188 3.109375 -11.671875 C 3.109375 -11.191406 3.207031 -10.769531 3.40625 -10.40625 C 3.613281 -10.039062 3.878906 -9.71875 4.203125 -9.4375 C 4.535156 -9.15625 4.914062 -8.898438 5.34375 -8.671875 C 5.769531 -8.453125 6.203125 -8.234375 6.640625 -8.015625 C 7.078125 -7.804688 7.503906 -7.59375 7.921875 -7.375 C 8.347656 -7.15625 8.722656 -6.910156 9.046875 -6.640625 C 9.378906 -6.367188 9.644531 -6.0625 9.84375 -5.71875 C 10.050781 -5.375 10.15625 -4.96875 10.15625 -4.5 Z M 10.15625 -4.5 "/></g></g></g><g fill="#000000" fill-opacity="1"><g transform="translate(244.144926, 227.709646)"><g><path d="M 13.5625 -14.90625 C 13.476562 -14.863281 13.351562 -14.796875 13.1875 -14.703125 C 13.050781 -14.628906 12.859375 -14.519531 12.609375 -14.375 C 12.367188 -14.226562 12.050781 -14.039062 11.65625 -13.8125 C 11.78125 -13.96875 11.835938 -14.078125 11.828125 -14.140625 C 11.816406 -14.210938 11.78125 -14.257812 11.71875 -14.28125 C 11.644531 -14.3125 11.550781 -14.316406 11.4375 -14.296875 C 11.363281 -14.273438 11.207031 -14.253906 10.96875 -14.234375 C 10.738281 -14.222656 10.445312 -14.207031 10.09375 -14.1875 C 9.738281 -14.175781 9.335938 -14.160156 8.890625 -14.140625 C 8.441406 -14.128906 7.96875 -14.125 7.46875 -14.125 C 7.4375 -12.9375 7.410156 -11.867188 7.390625 -10.921875 C 7.367188 -9.984375 7.347656 -9.148438 7.328125 -8.421875 C 7.316406 -7.703125 7.304688 -7.078125 7.296875 -6.546875 C 7.285156 -6.015625 7.273438 -5.554688 7.265625 -5.171875 C 7.242188 -4.296875 7.234375 -3.6875 7.234375 -3.34375 C 7.222656 -3.082031 7.1875 -2.820312 7.125 -2.5625 C 7.070312 -2.34375 6.988281 -2.101562 6.875 -1.84375 C 6.757812 -1.59375 6.59375 -1.363281 6.375 -1.15625 C 6.507812 -1.144531 6.640625 -1.132812 6.765625 -1.125 C 6.890625 -1.125 7.007812 -1.125 7.125 -1.125 C 7.457031 -1.125 7.757812 -1.140625 8.03125 -1.171875 C 8.300781 -1.210938 8.53125 -1.25 8.71875 -1.28125 C 8.914062 -1.3125 9.070312 -1.34375 9.1875 -1.375 C 9.300781 -1.414062 9.375 -1.445312 9.40625 -1.46875 C 9.03125 -1.207031 8.71875 -0.984375 8.46875 -0.796875 C 8.21875 -0.609375 7.992188 -0.457031 7.796875 -0.34375 C 7.597656 -0.226562 7.398438 -0.140625 7.203125 -0.078125 C 7.015625 -0.0234375 6.789062 0 6.53125 0 C 6.1875 0 5.894531 -0.0078125 5.65625 -0.03125 C 5.425781 -0.0625 5.1875 -0.078125 4.9375 -0.078125 C 4.820312 -0.078125 4.703125 -0.0703125 4.578125 -0.0625 C 4.453125 -0.0507812 4.3125 -0.03125 4.15625 0 C 4.351562 -0.164062 4.535156 -0.347656 4.703125 -0.546875 C 4.867188 -0.753906 5.007812 -1.003906 5.125 -1.296875 C 5.238281 -1.585938 5.328125 -1.9375 5.390625 -2.34375 C 5.453125 -2.75 5.484375 -3.242188 5.484375 -3.828125 L 5.484375 -14.0625 C 4.867188 -14.039062 4.265625 -14.023438 3.671875 -14.015625 C 3.078125 -14.003906 2.539062 -13.992188 2.0625 -13.984375 C 1.582031 -13.972656 1.179688 -13.957031 0.859375 -13.9375 C 0.535156 -13.925781 0.332031 -13.914062 0.25 -13.90625 C 0.0507812 -13.882812 -0.0859375 -13.890625 -0.171875 -13.921875 C -0.265625 -13.960938 -0.304688 -14.019531 -0.296875 -14.09375 C -0.285156 -14.164062 -0.234375 -14.253906 -0.140625 -14.359375 C -0.046875 -14.472656 0.0820312 -14.585938 0.25 -14.703125 L 1.703125 -15.765625 C 1.597656 -15.640625 1.566406 -15.539062 1.609375 -15.46875 C 1.648438 -15.40625 1.710938 -15.359375 1.796875 -15.328125 C 1.890625 -15.296875 2.019531 -15.273438 2.1875 -15.265625 C 2.300781 -15.265625 2.53125 -15.265625 2.875 -15.265625 C 3.226562 -15.273438 3.65625 -15.285156 4.15625 -15.296875 C 4.65625 -15.304688 5.210938 -15.316406 5.828125 -15.328125 C 6.441406 -15.335938 7.0625 -15.351562 7.6875 -15.375 C 8.320312 -15.394531 8.945312 -15.410156 9.5625 -15.421875 C 10.175781 -15.429688 10.734375 -15.441406 11.234375 -15.453125 C 11.734375 -15.472656 12.15625 -15.488281 12.5 -15.5 C 12.851562 -15.507812 13.085938 -15.515625 13.203125 -15.515625 C 13.421875 -15.523438 13.578125 -15.507812 13.671875 -15.46875 C 13.773438 -15.425781 13.832031 -15.367188 13.84375 -15.296875 C 13.851562 -15.222656 13.828125 -15.148438 13.765625 -15.078125 C 13.710938 -15.003906 13.644531 -14.945312 13.5625 -14.90625 Z M 9.40625 -1.46875 C 9.40625 -1.476562 9.410156 -1.484375 9.421875 -1.484375 Z M 9.40625 -1.46875 "/></g></g></g><g fill="#000000" fill-opacity="1"><g transform="translate(259.117738, 227.709646)"><g><path d="M 16.015625 -8.28125 C 16.015625 -7.375 15.863281 -6.535156 15.5625 -5.765625 C 15.269531 -5.003906 14.878906 -4.304688 14.390625 -3.671875 C 13.898438 -3.035156 13.335938 -2.472656 12.703125 -1.984375 C 12.078125 -1.503906 11.429688 -1.097656 10.765625 -0.765625 C 10.109375 -0.429688 9.460938 -0.175781 8.828125 0 C 8.203125 0.164062 7.632812 0.25 7.125 0.25 C 6.695312 0.25 6.242188 0.179688 5.765625 0.046875 C 5.296875 -0.0859375 4.828125 -0.28125 4.359375 -0.53125 C 3.890625 -0.789062 3.441406 -1.113281 3.015625 -1.5 C 2.585938 -1.894531 2.210938 -2.347656 1.890625 -2.859375 C 1.566406 -3.367188 1.304688 -3.9375 1.109375 -4.5625 C 0.921875 -5.1875 0.828125 -5.875 0.828125 -6.625 C 0.828125 -7.625 0.96875 -8.535156 1.25 -9.359375 C 1.53125 -10.179688 1.898438 -10.921875 2.359375 -11.578125 C 2.816406 -12.242188 3.335938 -12.820312 3.921875 -13.3125 C 4.503906 -13.800781 5.101562 -14.207031 5.71875 -14.53125 C 6.34375 -14.851562 6.953125 -15.09375 7.546875 -15.25 C 8.140625 -15.414062 8.675781 -15.5 9.15625 -15.5 C 9.664062 -15.5 10.1875 -15.441406 10.71875 -15.328125 C 11.25 -15.222656 11.769531 -15.050781 12.28125 -14.8125 C 12.789062 -14.582031 13.269531 -14.28125 13.71875 -13.90625 C 14.175781 -13.539062 14.570312 -13.085938 14.90625 -12.546875 C 15.25 -12.015625 15.519531 -11.394531 15.71875 -10.6875 C 15.914062 -9.976562 16.015625 -9.175781 16.015625 -8.28125 Z M 14.078125 -7.625 C 14.078125 -8.414062 13.976562 -9.128906 13.78125 -9.765625 C 13.59375 -10.398438 13.335938 -10.960938 13.015625 -11.453125 C 12.691406 -11.953125 12.316406 -12.378906 11.890625 -12.734375 C 11.472656 -13.097656 11.035156 -13.394531 10.578125 -13.625 C 10.117188 -13.863281 9.648438 -14.035156 9.171875 -14.140625 C 8.703125 -14.253906 8.257812 -14.3125 7.84375 -14.3125 C 7.175781 -14.3125 6.53125 -14.1875 5.90625 -13.9375 C 5.28125 -13.6875 4.722656 -13.289062 4.234375 -12.75 C 3.742188 -12.207031 3.351562 -11.515625 3.0625 -10.671875 C 2.769531 -9.828125 2.625 -8.8125 2.625 -7.625 C 2.625 -6.84375 2.738281 -6.132812 2.96875 -5.5 C 3.195312 -4.875 3.492188 -4.320312 3.859375 -3.84375 C 4.234375 -3.363281 4.648438 -2.953125 5.109375 -2.609375 C 5.578125 -2.273438 6.050781 -2 6.53125 -1.78125 C 7.019531 -1.570312 7.488281 -1.414062 7.9375 -1.3125 C 8.382812 -1.207031 8.773438 -1.15625 9.109375 -1.15625 C 9.441406 -1.15625 9.796875 -1.207031 10.171875 -1.3125 C 10.546875 -1.414062 10.914062 -1.570312 11.28125 -1.78125 C 11.65625 -2 12.007812 -2.28125 12.34375 -2.625 C 12.675781 -2.96875 12.972656 -3.375 13.234375 -3.84375 C 13.492188 -4.320312 13.695312 -4.875 13.84375 -5.5 C 14 -6.132812 14.078125 -6.84375 14.078125 -7.625 Z M 14.078125 -7.625 "/></g></g></g><g fill="#000000" fill-opacity="1"><g transform="translate(277.591934, 227.709646)"><g><path d="M 11.390625 -11.453125 C 11.328125 -10.921875 11.179688 -10.453125 10.953125 -10.046875 C 10.734375 -9.648438 10.460938 -9.296875 10.140625 -8.984375 C 9.816406 -8.679688 9.472656 -8.421875 9.109375 -8.203125 C 8.742188 -7.992188 8.394531 -7.816406 8.0625 -7.671875 C 8.695312 -6.992188 9.265625 -6.390625 9.765625 -5.859375 C 10.265625 -5.335938 10.707031 -4.875 11.09375 -4.46875 C 11.488281 -4.0625 11.828125 -3.710938 12.109375 -3.421875 C 12.398438 -3.128906 12.648438 -2.878906 12.859375 -2.671875 C 13.347656 -2.203125 13.6875 -1.890625 13.875 -1.734375 C 14.070312 -1.578125 14.285156 -1.46875 14.515625 -1.40625 C 14.753906 -1.34375 14.984375 -1.3125 15.203125 -1.3125 C 15.390625 -1.3125 15.566406 -1.328125 15.734375 -1.359375 C 15.910156 -1.398438 16.050781 -1.441406 16.15625 -1.484375 C 15.8125 -1.253906 15.507812 -1.046875 15.25 -0.859375 C 14.988281 -0.679688 14.75 -0.523438 14.53125 -0.390625 C 14.3125 -0.253906 14.101562 -0.148438 13.90625 -0.078125 C 13.71875 -0.015625 13.519531 0.015625 13.3125 0.015625 C 13.164062 0.015625 13.023438 -0.00390625 12.890625 -0.046875 C 12.753906 -0.0859375 12.609375 -0.15625 12.453125 -0.25 C 12.296875 -0.34375 12.128906 -0.457031 11.953125 -0.59375 C 11.785156 -0.738281 11.597656 -0.910156 11.390625 -1.109375 C 11.253906 -1.242188 11.050781 -1.460938 10.78125 -1.765625 C 10.507812 -2.066406 10.207031 -2.40625 9.875 -2.78125 C 9.539062 -3.15625 9.191406 -3.546875 8.828125 -3.953125 C 8.460938 -4.359375 8.117188 -4.734375 7.796875 -5.078125 C 7.484375 -5.421875 7.203125 -5.71875 6.953125 -5.96875 C 6.703125 -6.21875 6.535156 -6.367188 6.453125 -6.421875 C 6.335938 -6.484375 6.222656 -6.539062 6.109375 -6.59375 C 6.003906 -6.632812 5.882812 -6.671875 5.75 -6.703125 C 5.625 -6.734375 5.5 -6.742188 5.375 -6.734375 L 6.921875 -7.796875 C 7.273438 -7.796875 7.613281 -7.878906 7.9375 -8.046875 C 8.269531 -8.210938 8.550781 -8.453125 8.78125 -8.765625 C 9.019531 -9.085938 9.207031 -9.472656 9.34375 -9.921875 C 9.476562 -10.378906 9.535156 -10.894531 9.515625 -11.46875 C 9.492188 -11.8125 9.414062 -12.125 9.28125 -12.40625 C 9.144531 -12.6875 8.96875 -12.9375 8.75 -13.15625 C 8.53125 -13.375 8.28125 -13.566406 8 -13.734375 C 7.726562 -13.898438 7.445312 -14.035156 7.15625 -14.140625 C 6.863281 -14.253906 6.570312 -14.335938 6.28125 -14.390625 C 5.988281 -14.441406 5.722656 -14.46875 5.484375 -14.46875 C 5.316406 -14.46875 5.140625 -14.460938 4.953125 -14.453125 C 4.765625 -14.453125 4.570312 -14.453125 4.375 -14.453125 C 4.351562 -13.117188 4.328125 -11.925781 4.296875 -10.875 C 4.273438 -9.832031 4.253906 -8.90625 4.234375 -8.09375 C 4.210938 -7.289062 4.191406 -6.59375 4.171875 -6 C 4.160156 -5.414062 4.144531 -4.914062 4.125 -4.5 C 4.082031 -3.53125 4.039062 -2.878906 4 -2.546875 C 3.976562 -2.398438 3.941406 -2.253906 3.890625 -2.109375 C 3.847656 -1.972656 3.789062 -1.832031 3.71875 -1.6875 C 3.644531 -1.539062 3.550781 -1.394531 3.4375 -1.25 C 3.738281 -1.21875 4.007812 -1.195312 4.25 -1.1875 C 4.5 -1.1875 4.726562 -1.1875 4.9375 -1.1875 C 5.425781 -1.1875 5.785156 -1.195312 6.015625 -1.21875 C 6.253906 -1.25 6.390625 -1.273438 6.421875 -1.296875 C 6.054688 -1.109375 5.707031 -0.9375 5.375 -0.78125 C 5.050781 -0.625 4.738281 -0.484375 4.4375 -0.359375 C 4.132812 -0.242188 3.847656 -0.148438 3.578125 -0.078125 C 3.304688 -0.015625 3.039062 0.015625 2.78125 0.015625 L 0.921875 0.015625 L 1.859375 -0.609375 C 1.910156 -0.796875 1.957031 -1.015625 2 -1.265625 C 2.050781 -1.523438 2.09375 -1.800781 2.125 -2.09375 C 2.15625 -2.394531 2.179688 -2.703125 2.203125 -3.015625 C 2.234375 -3.328125 2.257812 -3.640625 2.28125 -3.953125 C 2.320312 -4.648438 2.351562 -5.394531 2.375 -6.1875 C 2.394531 -7.28125 2.410156 -8.332031 2.421875 -9.34375 C 2.429688 -9.78125 2.4375 -10.226562 2.4375 -10.6875 C 2.445312 -11.144531 2.453125 -11.59375 2.453125 -12.03125 C 2.460938 -12.46875 2.46875 -12.882812 2.46875 -13.28125 C 2.476562 -13.675781 2.484375 -14.023438 2.484375 -14.328125 L 0.5625 -14.1875 L 2.640625 -15.4375 C 2.765625 -15.414062 2.898438 -15.398438 3.046875 -15.390625 C 3.191406 -15.390625 3.34375 -15.390625 3.5 -15.390625 C 3.800781 -15.390625 4.101562 -15.398438 4.40625 -15.421875 C 4.707031 -15.453125 5.003906 -15.484375 5.296875 -15.515625 C 5.597656 -15.546875 5.890625 -15.570312 6.171875 -15.59375 C 6.453125 -15.625 6.738281 -15.640625 7.03125 -15.640625 C 7.601562 -15.640625 8.160156 -15.546875 8.703125 -15.359375 C 9.253906 -15.171875 9.738281 -14.894531 10.15625 -14.53125 C 10.570312 -14.164062 10.894531 -13.722656 11.125 -13.203125 C 11.363281 -12.679688 11.453125 -12.097656 11.390625 -11.453125 Z M 16.1875 -1.5 C 16.164062 -1.5 16.15625 -1.5 16.15625 -1.5 L 16.15625 -1.484375 L 16.15625 -1.5 C 16.164062 -1.5 16.175781 -1.5 16.1875 -1.5 Z M 16.1875 -1.5 "/></g></g></g><g fill="#000000" fill-opacity="1"><g transform="translate(293.963153, 227.709646)"><g><path d="M 9.375 -8.375 C 9.3125 -8.34375 9.21875 -8.285156 9.09375 -8.203125 C 8.976562 -8.128906 8.816406 -8.023438 8.609375 -7.890625 C 8.398438 -7.753906 8.125 -7.566406 7.78125 -7.328125 C 7.832031 -7.429688 7.828125 -7.507812 7.765625 -7.5625 C 7.710938 -7.625 7.632812 -7.664062 7.53125 -7.6875 C 7.414062 -7.71875 7.273438 -7.726562 7.109375 -7.71875 C 6.847656 -7.695312 6.476562 -7.671875 6 -7.640625 C 5.519531 -7.609375 4.976562 -7.582031 4.375 -7.5625 C 4.375 -6.425781 4.363281 -5.5 4.34375 -4.78125 C 4.332031 -4.070312 4.328125 -3.515625 4.328125 -3.109375 C 4.304688 -2.640625 4.289062 -2.296875 4.28125 -2.078125 C 4.269531 -1.941406 4.226562 -1.804688 4.15625 -1.671875 C 4.09375 -1.546875 4 -1.414062 3.875 -1.28125 C 3.75 -1.144531 3.578125 -1.023438 3.359375 -0.921875 L 8.203125 -0.921875 C 8.421875 -0.921875 8.648438 -0.929688 8.890625 -0.953125 C 9.085938 -0.984375 9.300781 -1.019531 9.53125 -1.0625 C 9.757812 -1.113281 9.976562 -1.191406 10.1875 -1.296875 C 9.832031 -0.960938 9.476562 -0.703125 9.125 -0.515625 C 8.78125 -0.335938 8.460938 -0.210938 8.171875 -0.140625 C 7.828125 -0.046875 7.5 0.00390625 7.1875 0.015625 C 6.488281 0.015625 5.832031 0.0195312 5.21875 0.03125 C 4.601562 0.0390625 4.046875 0.0546875 3.546875 0.078125 C 3.046875 0.0976562 2.617188 0.125 2.265625 0.15625 C 1.910156 0.1875 1.65625 0.222656 1.5 0.265625 C 1.71875 0.046875 1.890625 -0.164062 2.015625 -0.375 C 2.140625 -0.59375 2.234375 -0.832031 2.296875 -1.09375 C 2.367188 -1.363281 2.410156 -1.660156 2.421875 -1.984375 C 2.441406 -2.316406 2.445312 -2.710938 2.4375 -3.171875 L 2.4375 -7.546875 C 2.238281 -7.546875 2.039062 -7.546875 1.84375 -7.546875 C 1.644531 -7.554688 1.453125 -7.570312 1.265625 -7.59375 L 2.4375 -8.203125 C 2.4375 -8.585938 2.4375 -8.988281 2.4375 -9.40625 C 2.4375 -9.832031 2.4375 -10.285156 2.4375 -10.765625 C 2.4375 -11.253906 2.429688 -11.773438 2.421875 -12.328125 C 2.421875 -12.890625 2.421875 -13.5 2.421875 -14.15625 C 2.097656 -14.15625 1.796875 -14.160156 1.515625 -14.171875 C 1.234375 -14.179688 0.96875 -14.191406 0.71875 -14.203125 L 2.71875 -15.265625 C 4.0625 -15.265625 5.210938 -15.269531 6.171875 -15.28125 C 7.128906 -15.300781 7.921875 -15.320312 8.546875 -15.34375 C 9.273438 -15.375 9.878906 -15.40625 10.359375 -15.4375 C 10.609375 -15.4375 10.769531 -15.414062 10.84375 -15.375 C 10.925781 -15.332031 10.957031 -15.285156 10.9375 -15.234375 C 10.925781 -15.191406 10.882812 -15.144531 10.8125 -15.09375 C 10.738281 -15.050781 10.675781 -15.019531 10.625 -15 C 10.5625 -14.96875 10.453125 -14.90625 10.296875 -14.8125 C 10.160156 -14.738281 9.96875 -14.617188 9.71875 -14.453125 C 9.476562 -14.285156 9.144531 -14.054688 8.71875 -13.765625 C 8.863281 -13.921875 8.925781 -14.035156 8.90625 -14.109375 C 8.882812 -14.191406 8.832031 -14.25 8.75 -14.28125 C 8.65625 -14.3125 8.53125 -14.328125 8.375 -14.328125 C 8.238281 -14.316406 8.035156 -14.304688 7.765625 -14.296875 C 7.492188 -14.285156 7.175781 -14.269531 6.8125 -14.25 C 6.457031 -14.238281 6.066406 -14.226562 5.640625 -14.21875 C 5.222656 -14.207031 4.796875 -14.195312 4.359375 -14.1875 C 4.359375 -13.050781 4.359375 -12.03125 4.359375 -11.125 C 4.367188 -10.21875 4.375 -9.390625 4.375 -8.640625 C 5.101562 -8.640625 5.753906 -8.648438 6.328125 -8.671875 C 6.910156 -8.691406 7.410156 -8.710938 7.828125 -8.734375 C 8.304688 -8.765625 8.734375 -8.789062 9.109375 -8.8125 C 9.347656 -8.8125 9.503906 -8.789062 9.578125 -8.75 C 9.660156 -8.71875 9.691406 -8.675781 9.671875 -8.625 C 9.660156 -8.582031 9.617188 -8.535156 9.546875 -8.484375 C 9.484375 -8.429688 9.425781 -8.394531 9.375 -8.375 Z M 9.375 -8.375 "/></g></g></g></svg>